<svg viewBox="0 0 32 32" xml:space="preserve" xmlns="http://www.w3.org/2000/svg" enable-background="new 0 0 32 32"><path d="M14 24c0-4.3 2.7-8 6.6-9.4L20 8.9c-.1-.5-.5-.9-1-.9h-3V7c0-2.8-2.2-5-5-5S6 4.2 6 7v1H3c-.5 0-.9.4-1 .9l-2 20c0 .3.1.6.3.8s.4.3.7.3h15c-1.2-1.7-2-3.7-2-6zM8 7c0-1.7 1.3-3 3-3s3 1.3 3 3v1H8V7z" fill="#b02ca9" class="fill-000000"></path><path d="M18.3 18.3c-3.1 3.1-3.1 8.2 0 11.3s8.2 3.1 11.3 0 3.1-8.2 0-11.3-8.1-3.1-11.3 0zm8.5 4.3L25.4 24l1.4 1.4c.4.4.4 1 0 1.4-.4.4-1 .4-1.4 0L24 25.4l-1.4 1.4c-.4.4-1 .4-1.4 0-.4-.4-.4-1 0-1.4l1.4-1.4-1.4-1.4c-.4-.4-.4-1 0-1.4.4-.4 1-.4 1.4 0l1.4 1.4 1.4-1.4c.4-.4 1-.4 1.4 0 .4.4.4 1 0 1.4z" fill="#b02ca9" class="fill-000000"></path></svg>